<svg xmlns="http://www.w3.org/2000/svg" viewBox="0 0 1034.79 662.63"><defs><style>.cls-1{fill:#9ec218;}.cls-2{fill:#4b4b4b;}.cls-3{fill:#f5aa83;}.cls-4{fill:#9fc31a;}.cls-5{fill:#f4a074;}.cls-6{fill:#f3a277;}.cls-7{fill:#a1c41e;}.cls-8{fill:#fbfcf8;}.cls-9{fill:#a1c41f;}.cls-10{fill:#f9faf6;}.cls-11{fill:#eaf1cf;}.cls-12{fill:#f1f6e0;}.cls-13{fill:#f9d8c5;}.cls-14{fill:#f8c6ac;}.cls-15{fill:#f8f9f5;}.cls-16{fill:#505150;}.cls-17{fill:#a2c522;}.cls-18{fill:#505050;}.cls-19{fill:#515151;}.cls-20{fill:#f4a175;}.cls-21{fill:#a4c627;}.cls-22{fill:#a0c31d;}.cls-23{fill:#f4a277;}.cls-24{fill:#e4edc0;}.cls-25{fill:#e6eec8;}.cls-26{fill:#5e5e5d;}.cls-27{fill:#5b5b5a;}.cls-28{fill:#f4f8e8;}.cls-29{fill:#cadd84;}.cls-30{fill:#a3c524;}.cls-31{fill:#e7edcd;}.cls-32{fill:#e1ecba;}.cls-33{fill:#757575;}.cls-34{fill:#f2f6e2;}.cls-35{fill:#aac934;}.cls-36{fill:#f4a67d;}.cls-37{fill:#d4e49a;}.cls-38{fill:#6d6f67;}.cls-39{fill:#a7c82e;}.cls-40{fill:#c8dc7e;}.cls-41{fill:#b1ce47;}.cls-42{fill:#f5f8e8;}.cls-43{fill:#e1ecb9;}.cls-44{fill:#ccdf89;}.cls-45{fill:#a4c628;}.cls-46{fill:#a3c625;}.cls-47{fill:#b0cd44;}.cls-48{fill:#adcb3d;}.cls-49{fill:#c0d76b;}.cls-50{fill:#e5eec3;}.cls-51{fill:#5f5f5f;}.cls-52{fill:#f9d7c3;}.cls-53{fill:#bbd461;}.cls-54{fill:#b8d25a;}.cls-55{fill:#e0ebb8;}.cls-56{fill:#abca39;}.cls-57{fill:#afcc42;}.cls-58{fill:#eee6e2;}.cls-59{fill:#f2dcd1;}.cls-60{fill:#d6e5a0;}.cls-61{fill:#c9dd82;}.cls-62{fill:#e8efc8;}.cls-63{fill:#e0ebb9;}.cls-64{fill:#c7db80;}.cls-65{fill:#d9e7a7;}.cls-66{fill:#ebf0de;}.cls-67{fill:#ddeab1;}.cls-68{fill:#e0ebb7;}.cls-69{fill:#d9e7a8;}.cls-70{fill:#deeab3;}.cls-71{fill:#d3e398;}.cls-72{fill:#ecf3d4;}.cls-73{fill:#656e48;}.cls-74{fill:#f8cab2;}.cls-75{fill:#eaf1ce;}.cls-76{fill:#edf3d5;}.cls-77{fill:#edf3d8;}.cls-78{fill:#ecf3d5;}.cls-79{fill:#e6efc6;}.cls-80{fill:#d4e39d;}.cls-81{fill:#e7efc8;}.cls-82{fill:#e7efc7;}.cls-83{fill:#ecf2d2;}.cls-84{fill:#dde9af;}.cls-85{fill:#dfebb5;}.cls-86{fill:#cee08e;}.cls-87{fill:#8c9c50;}.cls-88{fill:#d6e59f;}.cls-89{fill:#c0d76c;}.cls-90{fill:#c5da78;}.cls-91{fill:#d5e49e;}.cls-92{fill:#c3d973;}.cls-93{fill:#d0e293;}.cls-94{fill:#cbde87;}.cls-95{fill:#dfebb4;}.cls-96{fill:#c1d76c;}.cls-97{fill:#849540;}.cls-98{fill:#c0d76a;}.cls-99{fill:#cfe190;}.cls-100{fill:#bed668;}</style></defs><title>logo-gitedubois</title><g id="Calque_2" data-name="Calque 2"><g id="Calque_1-2" data-name="Calque 1"><path class="cls-1" d="M357.07,519.39c19.72-1.2,39.73,3.05,59.17-3.2,5.67-5.51,8.82-1.05,12.05,3.07C506.09,522.2,582.76,532,657,557c.13,8.49-4.91,5.75-9.35,4.33-97.42-19.74-195.82-25.62-295.07-23.3a798.71,798.71,0,0,0-193.39,28.54c-6.4,1.75-12.36,5.54-20.17,1.54,68.24-32,140.45-42.91,213.86-48.61C354.23,518,355.64,518,357.07,519.39Z"/><path class="cls-2" d="M499.82,265.88c10.33,18.18,6.83,28.45-.09,42-10,19.72-17,41-30.74,58.95-20.37,26.61-43.39,43.74-80.44,41.76-49.64-2.67-99.29-3.8-148.62-11.32,47.73-8.31,96.13-11.2,143.87-6.6,43.82,4.21,67.58-18.76,88.58-50.46C486.35,319.14,492.87,294.89,499.82,265.88Z"/><path class="cls-2" d="M205.66,461.69c-21.91-48.68-13-94.32,14.08-137.83A329.32,329.32,0,0,1,247,285.7c7.48-8.89,8.39-16.67,2.07-25.87,1.05-1.64,2.14-1.75,3.27-.09,15.81,11.31,14.56-6.5,20.47-12.08.68-2.74,1.06-5.55,1.9-8.26a128.58,128.58,0,0,1,7.72-14.76,24.93,24.93,0,0,1,3.6-4,35,35,0,0,0,6.56-8.34c2.85-4.94,5.47-10,9.95-13.79,3.54-2.27,7.12-4.07,11.06-.79,4.7,6.82,2.81,13.72.29,20.62a41,41,0,0,1-2.48,5.28c-2.81,4.81-5.52,9.68-8,14.71-1.61,3.25-3.3,6.46-5.19,9.57a15.61,15.61,0,0,1-8.59,6.2c-22.47,33-45.5,65.7-67.26,99.2-20.77,32-20.76,67.15-12.37,103C212.09,461,209.84,462.11,205.66,461.69Z"/><path class="cls-3" d="M473.5,304.65c.75,12.45-5.36,22.3-12,31.93A421.77,421.77,0,0,0,395,350.32c-16.33,4.88-31.67,11.59-42.35,25.88l-8.47.76c-9.92,1.7-22.93,6.89-28.07-3.52-5.28-10.69,7.18-18.2,14.06-25.64,27.66-29.9,65.14-37.76,102.7-44.37C446.11,301.1,460.37,293.11,473.5,304.65Z"/><path class="cls-4" d="M447,619.87c109.26-19.57,216.46-9.35,322.19,22.32.57,4.63-1,6.67-5.82,4.91-96.85-18.65-194.48-27.22-293.1-23C462.09,624.73,452.81,631.73,447,619.87Z"/><path class="cls-5" d="M590.92,371.55c11.67,5.49,21,14.08,28.31,24.33,6.23,8.74,9.08,18.24-6.43,21.18-4.58,1.8-7.85,7.65-14,4.54-52.2,7.06-103.13,1.67-152.93-15.81,34.56.79,69-5,103.52-.23,6.61.92,13.34,2.17,19.93,1.79,12.25-.69,30,6.28,35.32-3.86s-14.06-16.3-19.06-26.86C584.8,372.22,586.18,370.11,590.92,371.55Z"/><path class="cls-6" d="M352.67,376.2c-1.05-3.89-6.24-8.66-.68-11.63,34.16-18.24,68.82-35.13,109.48-28-15,27.07-34,46.39-68.77,40.56C379.66,375,366,376.41,352.67,376.2Z"/><path class="cls-7" d="M182.72,43.4c49.43-66.55,120.44-49,167.73,1.69,4.5,4.82,7.68,10.87,11.47,16.36,2.27,4.14-.35,5.78-3.6,7.1-4.65.64-8.43-1.38-12.05-3.9-8.14-6.54-17-12.2-24.82-19.13-22.66-20.62-49.07-25-78.07-18.29-14.08,1.65-26.19,8.91-39.11,13.85-1.75.92-3.57,1.69-5.4,2.43-3.67,1.49-7.36,3-11.41,3A6.86,6.86,0,0,1,182.72,43.4Z"/><path class="cls-8" d="M276.81,242.14l-4,5.52c-7.11-7.29-14.26-14.11-17.13-24.83-10.27-38.44-42.9-64.83-55.36-102.33-5.36-16.11-12.75-31.53-19-47.34-3.32-8.35-6.49-16.87,1-24.83,25.92,47.54,53.21,94.31,78.87,142C269.72,206.14,281.36,222,276.81,242.14Z"/><path class="cls-9" d="M393.15,116.25c24.79,15.29,31.27,56.27,11.51,84.21-20,28.33-46.77,47.41-82.56,50.79-4.34,1.92-8.32,2.45-10.72-2.89a7.58,7.58,0,0,1,3.23-5.2c6.37-3.46,13.27-5.75,19.75-9A86,86,0,0,0,363,216.87a120.67,120.67,0,0,0,14.58-15.06c7.58-9.15,9.2-20.63,12.24-31.56a71.62,71.62,0,0,0-.41-31C387.7,131.25,386.05,123,393.15,116.25Z"/><path class="cls-10" d="M128.92,398.5a15.69,15.69,0,0,1-9.79,9.65c-15.91-1.9-14.18-15.57-17.29-26,0-11.94,7.89-18.64,16.63-24.67,9.16-6.32,18.09-12.83,26.26-20.49,18.57-17.41,31.83-36.61,24.5-63.9,15.11,8.71,17.44,27.4,9.3,49.57-4.15,11.29-19.78,17.33-14.47,32.55C154.77,371.61,143.74,386.61,128.92,398.5Z"/><path class="cls-11" d="M169.23,273.07c10.73,14.81,12.38,28-.4,44.13-13.61,17.18-28,32.69-46.48,44.23-7.77,4.86-15.36,9.36-16.23,19.71-4,1.05-5.94-1.31-7.53-4.36a23.63,23.63,0,0,1-1.39-6.27c-.57-12.64,7.67-20.5,15.68-28.29a172.76,172.76,0,0,0,31.34-40.41c7.21-13,9.28-26.42,5.65-40.8a7.24,7.24,0,0,1,4.88-3.77c8-.22,11.62,4.93,14.15,11.46C169,270.16,169.07,271.62,169.23,273.07Z"/><path class="cls-12" d="M276.81,242.14c-19.16-55.64-51.33-104.5-80.55-154.87C189.15,75,181.13,63.43,182.32,48.33c.13-1.64.27-3.28.4-4.93a33.08,33.08,0,0,1,4.12,1.47c25.21,31.6,45.09,66.69,63.93,102.19C264,172,279,196.32,286.38,224.05A22.48,22.48,0,0,1,276.81,242.14Z"/><path class="cls-13" d="M294.81,380.55c-5.54-.52-12.68,3.29-15.91-3.71-2.2-4.77,3.56-7.45,5.94-11,35-52.19,81.81-80.68,146.38-74.73,11.06,1,22.31.07,33.48,0,.4,1.1.81,2.2,1.22,3.29a9.39,9.39,0,0,1-5,4.6c-40.6,2.23-80.58,6.92-115.47,30.72C326,344.09,310.21,362.11,294.81,380.55Z"/><path class="cls-14" d="M294.81,380.55c5.7-25.49,28.79-36.39,44.52-53.47C379,307.93,420.4,296,464.7,295.63l0-.09c4.43-3.18,8.83-3.8,13.16.19l-4.33,8.92c-50,4.94-100.34,9.27-138.85,47.6-6,5.94-18.09,11.23-14.69,20,3.48,9,16.09,2,24.24,4.67C328.19,384.39,311.32,379.9,294.81,380.55Z"/><path class="cls-15" d="M693.09,340.76A28.24,28.24,0,0,1,679.78,354c-15.14-2.48-13.7-15.56-16.5-25.94,1.47-11.57,11.47-15.54,19.11-21.63,19.66-11.09,36.52-25.19,47.94-45.12,4.51-7.88,8.65-15.8,3.26-25-2.17-3.66-3.8-7.47-3.26-11.87a10.33,10.33,0,0,1,3.16-5.31c16.72,14.64,19.23,43.84,5.19,60-5.64,6.46-14.09,11-14.26,21.21C715.65,315.12,705.72,329,693.09,340.76Z"/><path class="cls-9" d="M783.09,592.83c77.89-7,154,1,227.95,27.19.49,3.63.18,6.3-4.48,3.79-51-9.54-101.57-22.22-153.76-24.31-20.09-.81-40.2-1.35-60.3-2C788.09,598.52,782.79,601.38,783.09,592.83Z"/><path class="cls-16" d="M101.47,376.53l4.65,4.61c3,9.67,4.28,20.14,13,27,5.7,30.47,21.81,58.78,18.7,91.06-.7,7.26,1.67,15-3.61,21.52-1.75,1.85-3.35,1.83-4.78-.38,4.35-43.75-16.83-81.42-28.66-121.31-6-4.4-8.76-10.07-6.75-17.57C95.43,378.19,97.31,375.63,101.47,376.53Z"/><path class="cls-17" d="M599.25,209.91c10.18-27.91,31-41.44,63-41,28.94.39,51.93,14.15,72.82,32.63a3.18,3.18,0,0,1,.48,1.82c-1.78.62-3.59,1.13-5.41,1.66-10.39-.5-19.59-4.77-28.79-9.07-7.34-3.1-15.25-4.26-22.78-6.7-2.83-.72-5.59-1.63-8.34-2.56a28.87,28.87,0,0,0-21.93.09c-17.15,3.63-29.94,15-43.6,24.77A5.15,5.15,0,0,1,599.25,209.91Z"/><path class="cls-9" d="M606.92,323.11c-21.76-10.06-39-24.35-45.48-48.77-4.33-16.33,2-30.2,13.43-40.09,8.38-7.24,4.53,3.78,6,6.79-7.45,16.86,3.84,30.14,8.53,44.65,2.61,6.68,7.41,11.73,12.42,16.62,4.63,5.43,11.07,9.61,12.05,17.55C612.58,323.17,610.76,325.32,606.92,323.11Z"/><path class="cls-18" d="M666.27,327.13c4.61,8.91,5.34,19.78,13.51,26.88,8.51,35.41,24.4,69.63,17.23,107.57-13.57-5.8-1.25-18.84-7.42-26.7a459,459,0,0,0-31.79-94.44c-5.46-4.36-7.39-10-6.27-16.87a7.86,7.86,0,0,1,5.09-3.37C661.56,320.1,664.37,323,666.27,327.13Z"/><path class="cls-19" d="M353.48,479.89c6.73-39.38-30.54-35.83-49.82-50.18,15.3-8.23,35.75-6.87,51.07,3,13.87,9,11.39,22.95,10.4,36.1-.72,9.63-2.73,19.16-4.17,28.73C349.62,495.45,358.42,484.74,353.48,479.89Z"/><path class="cls-20" d="M598.79,421.6l14-4.54c-9,17-4.33,34.93-2.52,52.37,2,18.82-2.06,36.11-8.9,53.3C589.19,489.1,594.1,455.35,598.79,421.6Z"/><path class="cls-21" d="M39.38,263.76c12.67-31.5,43.3-47,77.72-38.61,13.67,3.32,27.13,7.79,38.3,17.06.84,4.16-1.76,5.94-5,7.32-6.71,2-13-.32-19.44-1.77-6.32-1-12.37-3.24-18.69-4.23a195.08,195.08,0,0,0-24.89-.45c-15.2.31-25.1,11.11-36.61,18.71C47.23,263.86,43.75,266.5,39.38,263.76Z"/><path class="cls-22" d="M43.33,376.66C22.86,366.11,6.79,351.74,1.05,328.2c-3.31-13.56,1.55-24.76,10-34.76,3.71-4.38,7.5-4.09,9.79,1.83-.58,10.3,2.36,20.08,4.44,30C25,341.32,36.49,350.45,46,360.74c2.71,3.53,4.72,7.31,4.31,12C49.14,376,47.61,378.81,43.33,376.66Z"/><path class="cls-23" d="M428.29,519.26l-12.05-3.07c-.86-32.83,7.57-65.24,5.26-98.31C434.35,450.91,438.47,484.54,428.29,519.26Z"/><path class="cls-18" d="M252.31,259.74l-1.63.1H249c-22.9-21.43-50-40.82-37.32-84.46C226.52,206.13,239.42,232.93,252.31,259.74Z"/><path class="cls-24" d="M393.15,116.25c-2.15,19.58,11,38.9.93,58.6-6.76,2-8.12-3.15-10.06-7.57-1.45-15-2.86-30.08-7.6-44.58a26.26,26.26,0,0,1-.87-7c.26-3.67,1.38-6.94,4.45-9.25Z"/><path class="cls-25" d="M96.51,381.79q2.13,8.63,4.27,17.25C88.69,400.52,81.21,387.45,69.12,389c-3.84-5.43-12.84-6.16-13.29-14.7,8.51-11.93,20.94-1.38,30.84-5.47a15.28,15.28,0,0,1,6,1.6C96.67,373.24,95,378.08,96.51,381.79Z"/><path class="cls-26" d="M128.92,398.5c11-15,18.42-33,35.14-43.31C161.9,377.43,150.67,392.26,128.92,398.5Z"/><path class="cls-27" d="M693.09,340.76c8-15.35,15.63-31.05,31.33-40.42C722.89,320.77,713.11,334.76,693.09,340.76Z"/><path class="cls-28" d="M703.23,191.51c9.34,3.74,19.37,6.11,26.89,13.49-7.55,6.79,3.52,9.14,3.37,14.17,0,1.51,0,3,0,4.55-2.41,2.5-5.28,2.81-8.44,1.8-5.35-3.23-8.11-9.14-13.21-12.64-5.89-5.48-16.36-6.89-16-17.95C697.22,191.52,699.32,189.52,703.23,191.51Z"/><path class="cls-29" d="M30.12,291.11c.42-7.3-2.25-16.15,9-18,7-2.21,10.21-11.13,18.7-10.93A7.53,7.53,0,0,1,63.11,265c-2.9,16.32-9.34,29.32-28.4,30.49A12.55,12.55,0,0,1,30.12,291.11Z"/><path class="cls-30" d="M447,619.87c6.78,6.82,15.58,2.43,23.26,4.24l-66,10.62C416.8,622.72,432.32,622.93,447,619.87Z"/><path class="cls-31" d="M653.47,322.82q2.16,8.82,4.33,17.62l-23.57-4.79c-3.86-3.85-11.53-5.52-7.78-13.73C635.68,315.6,644.72,314.9,653.47,322.82Z"/><path class="cls-32" d="M30.12,291.11c1.38,0,2.76,0,4.14,0C39,296,38,301.36,35.46,306.83c-5.8,5.8-1.86,18.41-13.75,20C15.05,316.49,14,306,20.85,295.27,26.84,300.39,26.26,290.76,30.12,291.11Z"/><path class="cls-33" d="M689.59,434.88c7.91,7.37-.08,19.2,7.42,26.7-2.93,11.84-1.35,25.16-13.24,37.79C689.05,476,689.92,455.46,689.59,434.88Z"/><path class="cls-34" d="M586.46,290.61C577,275,572.16,258.77,580.86,241c1.9,7.56-2.87,16.43,4.49,22.91,4.66,3,5.8,8.13,7.56,12.89a23.06,23.06,0,0,1,.83,6.13C592.91,287,592.44,291.48,586.46,290.61Z"/><path class="cls-35" d="M763.32,647.1l5.82-4.91,31,9.4c.78,4,0,6.29-4.67,4.31C784,655.63,773.51,651.94,763.32,647.1Z"/><path class="cls-36" d="M590.92,371.55l-5.35,5.08-25.45-21.42C577,356.11,584.29,363.24,590.92,371.55Z"/><path class="cls-37" d="M590.16,282.08c-.12-1.44-.19-2.88-.22-4.32a40.68,40.68,0,0,1,0-27.3l4-8.93a4.52,4.52,0,0,1,6.4.6,69.82,69.82,0,0,1-3.83,39A4.46,4.46,0,0,1,590.16,282.08Z"/><path class="cls-38" d="M353.48,479.89q3.74,8.85,7.48,17.68-1.93,10.92-3.88,21.82l-2.12.32-2.12-.25Q353.16,499.67,353.48,479.89Z"/><path class="cls-39" d="M57.44,375.83c3.69,4.55,11.91,5.05,11.68,13.12-9.75-1.66-18.53-5.37-25.79-12.29l4.82-4.79C52.74,369.66,55.21,372.46,57.44,375.83Z"/><path class="cls-40" d="M599.13,241.58l-5.17-.05c-.79-7.79-11.64-18,5.08-21.6,4.35,3.12,5.24,7.87,6,12.71C605.1,237,603.44,240.15,599.13,241.58Z"/><path class="cls-41" d="M647.61,561.28,657,557c7.87,1.52,15.37,3.77,24,11.72C666.91,568.91,657,566.43,647.61,561.28Z"/><path class="cls-42" d="M168.9,268.7l-13.17-9.13c-1.94-3.3,0-5.35,2.3-7.31,2.59-1.61,5.47-1.83,8.41-1.72C174,255.67,173.45,261.92,168.9,268.7Z"/><path class="cls-43" d="M57.17,264.2c-4.63,4.47-8.78,9.63-14,13.21-4.41,3-3.4-2.05-4-4.26l.24-9.39,9-3.47C52.1,259.88,55.11,261,57.17,264.2Z"/><path class="cls-44" d="M380,106.44l-.41,9.35c-10.72,5.18-14.33-1-16.14-10.15a11.52,11.52,0,0,1,5.1-8.32c5.25-2.43,8.13.62,10.57,4.65C379.41,103.46,379.7,105,380,106.44Z"/><path class="cls-45" d="M626.69,326.22q3.76,4.72,7.54,9.43c-10.71-.66-19.4-5.73-27.31-12.54l5.52-4.31a4.87,4.87,0,0,1,4.67-2.11C621.93,318.22,624,322.5,626.69,326.22Z"/><path class="cls-46" d="M1006.56,623.81,1011,620c7.51,2.35,15.8,3,23.75,11.56C1022.89,631,1014.22,629.48,1006.56,623.81Z"/><path class="cls-47" d="M379.12,102l-8.22-4.49c-6.5-4.24-9-9.85-6-17.4,1.85-1.85,3.8-2,5.83-.28C377.15,85.81,378.83,93.62,379.12,102Z"/><path class="cls-48" d="M370.74,79.8c-1.1-.07-2.2-.13-3.3-.17-7.73,4.45-8.81-2.62-11.61-6.73a7,7,0,0,1,1-6.38l5.06-5.07C367.15,66.46,370.81,72.23,370.74,79.8Z"/><path class="cls-49" d="M795.45,655.9l4.67-4.31c5.44,2.87,13.5,1.59,16,11C808.38,661.54,801.29,661,795.45,655.9Z"/><path class="cls-50" d="M603.51,232.57c-4.91-3-4.59-7.87-4.47-12.65l.21-10A22.21,22.21,0,0,0,603,209c3.87,1.68,5.3,5.18,6.59,8.8,1.09,5.06-.53,9.36-3.71,13.22C605.11,231.56,604.31,232.07,603.51,232.57Z"/><path class="cls-51" d="M205.66,461.69l4.35-5.4c2.53,6,5.05,12,8.18,19.42C206.5,474.68,208.37,466.48,205.66,461.69Z"/><path class="cls-52" d="M477.83,295.73l-13.16-.19c0-1.47,0-2.94,0-4.4C470.37,289,479.57,276.58,477.83,295.73Z"/><path class="cls-53" d="M783.09,592.83l9.41,4.66c-5.85,3.84-12.29,3.91-18.88,2.94-1.4-1.06-1.88-2.13-1.46-3.24s.88-1.67,1.33-1.67C776,592.17,779.43,592.08,783.09,592.83Z"/><path class="cls-54" d="M312.72,247.09l9.38,4.16c-6.93,5.61-14.92,4-22.78,3.36-2-7.38,3.95-8.06,8.34-10.08A5.6,5.6,0,0,1,312.72,247.09Z"/><path class="cls-55" d="M590,250.46l0,27.3c-4.91-3.47-4-8.9-4.59-13.81C585.81,259.08,585,253.76,590,250.46Z"/><path class="cls-56" d="M166.44,250.54l-5.91,4.32c-2.92-2.19-7-.56-9.86-3.09a5.24,5.24,0,0,1-.67-5l5.4-4.59Z"/><path class="cls-57" d="M773.49,595.52c0,1.64.09,3.27.13,4.91-6.35,1-12.74,2.67-20.62-2.27Z"/><path class="cls-44" d="M308.12,246.53l-8.8,8.08-9.68-.51,5.49-8.29C299.62,243,304,242,308.12,246.53Z"/><path class="cls-18" d="M129.44,520.35l4.78.38c-.65,7.08-1.31,14.17-2.29,24.82C126.38,534.73,128.92,527.5,129.44,520.35Z"/><path class="cls-58" d="M532.76,327.6a25.58,25.58,0,0,1,2.88-2.18c1.42,1.4,3.25,2.84,3.73,4.62.63,2.31-.58,4.48-3.33,2.52C534.53,331.49,533.82,329.28,532.76,327.6Z"/><path class="cls-59" d="M556.14,338.39c-2,.67-3.67,1.8-4.62,1.38-1.72-.76-3-2.45-4.5-3.75,1.18-.47,2.62-1.62,3.5-1.28C552.4,335.46,554,336.93,556.14,338.39Z"/><path class="cls-60" d="M200.29,39.3c12.44-8.55,25.89-14.67,40.88-17.06,14.6,5.5,31.39-7.45,45.11,5.37-5.37,11.61-16.16,8-25,8.4-31,1.54-33.2,5-16.65,32,21.4,35,38.53,72.13,57.15,108.53,4.17,8.15,7.43,16.41,2.19,25.39q-4.35,6.94-8.69,13.91c-15.74-14.49-20.36-35.43-30.45-53.2-9.84-17.3-17.26-35.92-27.52-53s-19.59-35.24-31.67-51.46C201.45,52.6,199.09,46.43,200.29,39.3Z"/><path class="cls-61" d="M303.92,202c-5.77-28.24-22.45-51.61-34.73-76.87S242.39,75.42,228.34,51c-6.22-10.83-3.57-15.74,8.23-18.54,16.29-3.87,32.66-.91,48.94-2,5.93-4.84,10.61-1.48,15.25,2.29,2.83,3.62,5.45,7.3,2.54,12.13-8,4.43-15.95-.23-23.95-.11-7.83.11-17.5-4.76-22.52,4-4.65,8.17,2.27,15.67,6.27,22.48,18.5,31.44,34.68,64.06,49.89,97.19,3.83,8.35,11.22,16.8,2.69,26.61l-2.87,1.33Z"/><path class="cls-62" d="M286.38,224.05c-23.44-32-35.73-70.16-56.35-103.86C215,95.56,195.88,73,186.84,44.87l9-4.71c13.91,22.59,28.52,44.75,42.36,67.39,15.84,30.84,31.63,61.69,46.64,92.93,3.27,6.81,10.11,13.35,5.11,22.29A4.05,4.05,0,0,1,286.38,224.05Z"/><path class="cls-63" d="M289.93,222.77c-13-33.91-31-65.43-47.53-97.61-3.1-6-6.77-11.29-6.22-18.33,1.5-1.87,3-2,4.56,0a784.23,784.23,0,0,1,54.49,109.07C294.52,219,294.22,222.42,289.93,222.77Z"/><path class="cls-64" d="M308.4,219.27c1.24-7.69,6.53-14.59,4.41-22.93h.12c1.84-1.33,4.93-2.87,6-1.63,14.05,16.36,30.35,12,47,5.65a9.65,9.65,0,0,1,2.69,5.75c-.22,4.88-2.94,8.32-6.37,11.38C335.42,234.58,324.59,234.93,308.4,219.27Z"/><path class="cls-65" d="M308.4,219.27c19,12.46,36,2.73,53.16-4.72a6,6,0,0,1,5.14,4.91,57.6,57.6,0,0,1-31,18.93c-6.26-1.91-12.74.93-19-.79-7.57-2.09-13.41-5.51-9.19-15A4,4,0,0,1,308.4,219.27Z"/><path class="cls-55" d="M307.53,222.61c2.15,18.25,22.61,3.6,28.16,15.77-5.72,4.09-11.7,7.5-19.05,7.3-4.85-4.55-12.86-2.64-17.11-8.42C301.12,231.79,302.4,226.14,307.53,222.61Z"/><path class="cls-66" d="M299.53,237.26c7.26-.38,13.87.57,17.11,8.42a30,30,0,0,1-3.92,1.41l-4.6-.56-13-.71Q297.32,241.53,299.53,237.26Z"/><path class="cls-67" d="M298.94,34.9l-13.43-4.53c-13.23-11.21-30.87,1.78-44.34-8.13C273,14.93,302.28,17.84,326,43.3a4.76,4.76,0,0,1,1.39,3.5c-.06,1.3-.21,2-.47,2a9.92,9.92,0,0,1-8.31,2.34,16.79,16.79,0,0,1-5.32-2.43C308.15,44.48,305.23,37.93,298.94,34.9Z"/><path class="cls-68" d="M240.74,106.8l-4.56,0c-16.09-20.61-33.69-40.31-40.36-66.67l4.47-.86C214,61.69,229.8,82.76,240.74,106.8Z"/><path class="cls-69" d="M356.86,66.52c.15,1.37.31,2.73.48,4.09,2.05,4.42-.81,5.86-4.2,7-7.77-.17-12.54-4.44-15.41-11.32a6.41,6.41,0,0,1,2.38-6c3.4-1.18,6.57-.21,9.71,1.09Z"/><path class="cls-43" d="M349.82,61.42l-10.5.39c-8-.84-15.06-2.72-13.55-13.34.09-1.72.17-3.45.25-5.17C333.29,50.21,344.66,51.71,349.82,61.42Z"/><path class="cls-68" d="M388.45,165.1c.21,4.22,1.4,7.86,5.63,9.75-1.63,11.87-4.35,23.24-14.34,31.25a9.82,9.82,0,0,1-7.23-6.77C374.51,186.38,373.36,171.92,388.45,165.1Z"/><path class="cls-70" d="M375.09,201.2l4.65,4.9c-2.84,5.94-7.49,10.09-13,13.36l-5.14-4.9,4.59-8.85C368.63,203.2,369.85,198.2,375.09,201.2Z"/><path class="cls-71" d="M151.25,259.6c8.55,9.21,9.16,18.9,4.3,30.63a157.58,157.58,0,0,1-39.41,56.27c-7.63,7.05-16.07,13.88-14.89,26.09-5.61.34-7.11-4.16-9.32-7.87-2.09-5.22-3.39-10.55-2.39-16.22,8.38-18.44,25.14-30.74,34.61-48.75,15.35-29.19,15-32.29-14.66-44.65-4.4-1.83-11-2.85-6.94-10.56,7.32-5.11,14.85-1.3,22.31-.58,7.65.94,13.79,5.86,21,8A10.88,10.88,0,0,1,151.25,259.6Z"/><path class="cls-72" d="M151.25,259.6l-4.76-4.27c-.89-4.41.22-6.73,5.19-5l8.85,4.54-4.81,4.71-2.23,0Z"/><path class="cls-73" d="M96.42,363.7c1,3.29.83,7.24,4.83,8.89a6.71,6.71,0,0,1,.22,3.94l-5,5.27q-2.1-4.56-4.19-9.11C90.22,368.1,89.34,364.08,96.42,363.7Z"/><path class="cls-74" d="M464.7,295.63c-30.78,6.66-62.68,7.72-92.21,20.84-10.41,4.62-20,13.83-33.16,10.61C377.07,300.34,419.71,293.28,464.7,295.63Z"/><path class="cls-75" d="M724.83,223.44l8.61.27c.2,3.66.95,7,4.48,9,4.29,21.39-11.48,34-22,48.35-8.34,11.41-20.54,19.33-31.71,28q-9,9-17.93,18l-8.64-5.3a4.77,4.77,0,0,1-1.28-5.37,28.86,28.86,0,0,1,5.3-7.51c18.27-15.17,36.43-30.44,48.55-51.42.93-1.74,2-3.41,3-5.08,4.49-6.52,5.85-14.06,6.92-21.71C720.87,227.77,722.15,225.14,724.83,223.44Z"/><path class="cls-76" d="M684.2,309.11c19.09-24.62,46.61-43.27,53.72-76.37,7.76,7.86,5.33,16.59.92,24.47C726,280.1,710.41,300.29,684.2,309.11Z"/><path class="cls-77" d="M608,219.18c-4-2.22-4.46-6.21-5-10.15,12.19-13.11,25.3-24.66,44.25-26.3a38.73,38.73,0,0,1,24.45.05l7.88,1c.88,3.89-1.48,5.78-4.44,7.31-7.59,3-16.18.91-23.63,4.65a85.79,85.79,0,0,0-19.44,13.14C624.38,213,618.75,222.1,608,219.18Z"/><path class="cls-78" d="M675.1,187.83l4.5-4.07c7.68,3.17,16.83,1.87,23.63,7.75l-5.8,5.53c-8.19,5.25-15,1.09-21.89-3.12A4.51,4.51,0,0,1,675.1,187.83Z"/><path class="cls-79" d="M671.72,182.78l-24.44-.05C655.43,178.18,663.58,178.4,671.72,182.78Z"/><path class="cls-55" d="M590.16,282.08c1.44.06,2.89.1,4.33.12,6.79,4.39,9.55,11.09,10.63,18.75-1,3.22-2.43,5.92-6.59,4-5.61-3.44-10.48-7.51-12.07-14.35Q588.31,286.33,590.16,282.08Z"/><path class="cls-60" d="M598.53,305l4.84-4.51a5.83,5.83,0,0,1,5.15-1.69,18.69,18.69,0,0,1,7,5.09c2.57,3.15,4.37,6.6,4.11,10.84a7.72,7.72,0,0,1-3.1,4.83,10.75,10.75,0,0,0-4.12-.72Z"/><path class="cls-80" d="M616.56,319.52l.44-6c8.37-7.29,18.66-7.23,28.84-7.68a20.78,20.78,0,0,1,12,6.34,4.81,4.81,0,0,1-.28,6.29,26.27,26.27,0,0,0,0,3.32,8.17,8.17,0,0,1-4.16,1c-9,.81-18.6-3.64-26.79,3.41Z"/><path class="cls-81" d="M57.17,264.2l-8.75-3.91c9.08-12.06,20.75-19.93,35.79-22.38,4.31,3.07,10,.05,14.3,3.35a7.21,7.21,0,0,1,0,5.81c-5.73,9.71-18.2,7.82-25.45,14.95-3.53,2.08-7,4.45-11.42,2.49Z"/><path class="cls-82" d="M97.35,245.36c0-1.24,0-2.48,0-3.72,5.17-4.63,12.29,0,17.65-3.74l18,4.54c.5,3.71.1,6.34-4.59,3.89l-26.59-.23Q99.2,248.2,97.35,245.36Z"/><path class="cls-82" d="M128.44,246.33l4.59-3.89,17,4.36c.53,1.19,1.09,2.36,1.68,3.52l-5.19,5C139.5,254.29,133.29,251.7,128.44,246.33Z"/><path class="cls-83" d="M115,237.9c-5,5.69-11.64,3.08-17.65,3.74-4.67-.22-9.72.89-13.15-3.73C94.48,235.48,104.74,236,115,237.9Z"/><path class="cls-84" d="M21.71,326.84c7.86-5.43-.13-17.11,8.66-22.18A285,285,0,0,1,47,358.41a10.06,10.06,0,0,1-3.87,5.93C31.19,354.58,18,345.55,21.71,326.84Z"/><path class="cls-85" d="M43.09,364.34l.66-6.23c14.11-1.5,28.4,2.95,42.44-1.37,6.43,3.95,4.9,9.4,2.83,15-9.3,10.84-22-4.5-31.59,4.13l-9.28-4Z"/><path class="cls-61" d="M339.32,66.31l13.34,9.07c9.65,6.35,16.38,14.18,13.52,26.87q.49,12.94,13.41,13.54a21.05,21.05,0,0,1,.4,4.11c1.88,6-.67,10.36-5.23,13.95-6.53,1-9.75-3.9-11.33-8.44-9.9-28.4-30.5-47.86-53.27-65.66-2.58-3.74-4.85-7.56-2.47-12.29,3.28-1.94,6.34-1.52,9.21.88h0C324,54.82,333.13,58.7,339.32,66.31Z"/><path class="cls-86" d="M375.1,133.78,380,119.9c7.65,14.16,9,29.5,8.46,45.21L375.09,201.2l-8.94,4.51c0-1.52-.07-3-.11-4.55-4.6-5.3-1.56-10.3.53-15.35,9.41-15.19,6.8-32.37,8-48.93C374.71,135.85,374.91,134.81,375.1,133.78Z"/><path class="cls-87" d="M89,371.7l-4.4-14c-4.53-4.57-2.11-7.51,2.33-10a5.5,5.5,0,0,1,5.48,2.49l4,13.48q-2,4.5-4.09,9A18.84,18.84,0,0,0,89,371.7Z"/><path class="cls-88" d="M657.6,318.51c-.1-1.65-.21-3.3-.32-4.95A11.85,11.85,0,0,1,654,304.7c8.4-20.17,27.35-32.84,36.9-52.37,5.86-12,14.35-23,6.14-37.05-16.26-10.5-33-16.51-51.91-6.86a24,24,0,0,1-6.34,1.11c-3.39-.17-6.39-1.19-8.59-3.94,3.77-7.62,11.62-9.71,18.19-13.53a38.13,38.13,0,0,1,26.91.11L697.43,197l18.18,13.06c12.12,20.87-1.1,37.13-9.78,54.22-10.07,20.52-31.62,30.77-43.88,49.33Z"/><path class="cls-70" d="M702.1,264.13c5.44-17.77,19.55-33.36,13.51-54,6,2.42,8.89,7,9.21,13.34-.09,3.07-.2,6.15-.3,9.22-4.09,7.06-5.29,15.28-8.95,22.51v0C711.49,258.75,710.45,267,702.1,264.13Z"/><path class="cls-89" d="M88.47,349.44c-3.49,1.72-4,4.84-3.86,8.25-13.45,15.67-27.17,7.08-40.86.42-7.61-17-16.82-33.65-13.38-53.45,4.86-3.48,4.13-8.58,3.9-13.54,15.89-1.86,20.4-15.53,27.38-26.62l8.54-5.1c10.78-5.22,21.7-8.39,34.09-6.84,23.28,2.92,29.36,11.76,22,34.39-4.93,15.07-14.75,27.33-23.69,40C97.46,334.23,91.06,340.62,88.47,349.44Z"/><path class="cls-90" d="M607.91,300.34l-4.54.11c-5.36-4.9-7.82-11.23-8.88-18.25-.44-13.77.16-27.42,4.64-40.62l4.38-9-.21-.2c3.13-2.81,5.55-8.37,10.86-2.85,2.19,5.32.81,10.46-1.61,15.11-7.3,14-9,28.19-2.89,43.16C611.37,291.94,611.57,296.59,607.91,300.34Z"/><path class="cls-91" d="M366.18,102.25c-.63-10.92-8.46-18.19-13.52-26.87l4.68-4.77,10.09,9q1.74,8.93,3.47,17.85Z"/><path class="cls-37" d="M612.51,228.15l-9.21,4.23,4.74-13.2,22.11-13.59,9.3.13C637.63,221.86,625.21,225.17,612.51,228.15Z"/><path class="cls-92" d="M370.65,187.73q-2.29,6.72-4.61,13.43c-19.77,21.34-36.64,10.42-53.11-4.83,4.57-26.1-15.09-43.63-23.8-64.8C279,106.9,263.75,84.44,251.46,60.66c-8.07-15.6-2.8-24,14.88-23.06,12.42.67,24.7,4.11,37.05,6.32a5.19,5.19,0,0,1,4.49,4.48l4.5,9c-2.31,2.65-5.32,3.51-8.69,3.49-6.61-.63-11.85-4.29-17.16-7.77-9.81-4.42-15.73-3.25-9.6,8.68,11.82,23,20.8,47.44,33.64,70,1.91,3.65,3.6,7.39,5.27,11.15,5.52,11,11.79,21.49,17.21,32.49a61,61,0,0,1,4.71,8c4.09,8.73,6.85,22,18.08,5.07,1.93-5,3.53-10.32,9.64-11.93a9.94,9.94,0,0,1,6.19,1.86C372.88,181.67,373.2,184.86,370.65,187.73Z"/><path class="cls-93" d="M307.88,48.4l-4.49-4.48q-2.22-4.52-4.45-9c9.06.35,14,6.24,18,13.44Z"/><path class="cls-93" d="M339.32,66.31c-8.91-4.19-18.05-8.09-22.43-18l8.89.14,13.54,13.34Z"/><path class="cls-94" d="M88.47,349.44c-5.06-9.15,1-15.1,5.85-21.69,7.44-10.09,15.42-20,21.32-31,5.76-10.71,14.3-23.3,5.15-34.94-8.08-10.26-21.62-7.23-33.37-5.64-5.78.78-11.48,2.11-17.23,3.19,5.16-12.28,19.6-6.44,27.16-14l4.5.73c1.73,1.33,3.29,3.45,5.21,3.86,40.6,8.71,42.86,16.35,21.79,53.11-10.16,17.72-25.06,30.87-36.42,47.15Q90.45,349.8,88.47,349.44Z"/><path class="cls-95" d="M702.1,264.13l13.48-9C705.45,281.81,684,298,662,313.65,668.83,291.84,691,282.48,702.1,264.13Z"/><path class="cls-95" d="M715.57,255.17c-.31-8.82,1.81-16.67,8.95-22.51C724.82,241.48,722.65,249.31,715.57,255.17Z"/><path class="cls-79" d="M675.25,192.17l-26.91-.11c7.93-7.75,17.82-3,26.76-4.23C675.19,189.27,675.24,190.72,675.25,192.17Z"/><path class="cls-96" d="M612.51,228.15c7.34-9.46,20.88-11.42,26.94-22.43,1.46,0,2.92,0,4.38-.08,7.49-3.55,15.35-5.07,23.54-3.55,17.17,3.18,24.75,14.63,17.92,30.57-8.39,19.59-16.86,39.65-34.78,53.16A55.89,55.89,0,0,0,633,301.62c-5.79,8.26-12.82,8.15-20.59,3.07-1.48-1.45-3-2.91-4.45-4.35C593,275.22,601.72,251.62,612.51,228.15Z"/><path class="cls-90" d="M612.36,304.69c18.27,3.41,19.72-16.89,31.56-22.54,4,2.85,7.79,5.8,7.36,11.48-1.16,5.2,1.82,11.36-3.48,15.63-10.11,2.54-20.13,5.76-30.8,4.3Q614.69,309.12,612.36,304.69Z"/><path class="cls-97" d="M647.8,309.26c2.19-4.7-5.46-9.83.6-14.37a4.49,4.49,0,0,1,5.1-.21c3,2.79,1.29,7.23,3.54,10.29l.24,8.59C653.26,314,649.86,313.14,647.8,309.26Z"/><path class="cls-98" d="M370.62,178.72h-4.48c-5.14-4.85-2.85-11.07-3.37-16.89-3-33.26-14-62.43-41.88-83.36-7.26-5.45-17.59-9.16-17.46-21.1h8.95C345,73.2,359.11,104.24,375.1,133.78h0C378.08,149.21,380.73,164.61,370.62,178.72Z"/><path class="cls-64" d="M370.62,178.72c5.35-14.59,4.64-29.79,4.47-44.94,8.71,18.83,6.12,36.72-4.44,53.95Z"/><path class="cls-61" d="M652.54,295.73a23.18,23.18,0,0,1-4.14-.83l-4.48-12.75c22.43-12.59,28.88-36.49,38.69-57.41,4.56-9.73-4.7-16.72-14.25-18.43-8-1.43-16.34-.53-24.53-.67,20.94-18,39.27-2.54,58.24,4.58,6.9,30.53-15.1,49.24-29.52,70.7C668.14,287.48,663.69,297,652.54,295.73Z"/><path class="cls-99" d="M652.54,295.73c25.06-23.51,47-48.84,49.53-85.51,10.2,16.58,1.95,30.4-6.2,44.53-10.7,18.54-25.27,34-38.83,50.22Z"/><path class="cls-100" d="M303.43,57.37c32.82,22.27,57.33,49.77,64.52,91.1,1.95,11.19-3.2,20.15-1.81,30.25-5.26,3.23-4.32,8.55-4.49,13.49-14.54,13.8-20.61,2.12-26.87-9l-4.48-4.49c-4.87-12.54-8.46-25.72-17.92-36-3.61-1.94-4.39-5.29-4.47-9-8.45-22.7-19.49-44.23-29.87-66-6.44-13.53-2-19.09,11.94-19.37Z"/><path class="cls-98" d="M290,48.38c-14.06,7.51-12.26,17.31-4.88,28.85,11.08,17.36,21.13,35.3,22.81,56.55C288.29,111.9,286,80.56,267.06,58.26c-3.67-4.32-.6-9.55,2.79-11.7C276.45,42.39,283.82,41.78,290,48.38Z"/><path class="cls-98" d="M334.78,183.22c9,2.84,14,17.73,26.87,9C358,199,353.84,205.38,344.53,203,333.73,200.29,335.46,191.11,334.78,183.22Z"/><path class="cls-98" d="M312.38,142.77c14.49,7.71,16.36,21.76,17.92,36C322.86,167.48,314.53,156.67,312.38,142.77Z"/></g></g></svg>